/vscmnt/brussel_pixiu_data/_data_brussel/112/vsc11236/PredSimResults/SUBJ06mtu3D/weighted-LRposFixed/trackIG/worker_02.mot
version=1
nRows=8
nColumns=50
inDegrees=yes
endheader
                time	         pelvis_tilt	         pelvis_list	     pelvis_rotation	           pelvis_tx	           pelvis_ty	           pelvis_tz	       hip_flexion_r	     hip_adduction_r	      hip_rotation_r	        knee_angle_r	       ankle_angle_r	         mtp_angle_r	       hip_flexion_l	     hip_adduction_l	      hip_rotation_l	        knee_angle_l	       ankle_angle_l	         mtp_angle_l	    lumbar_extension	      lumbar_bending	     lumbar_rotation	 ercspn_r/activation	 intobl_r/activation	 extobl_r/activation	    abd_r/activation	    add_r/activation	hamstrings_r/activation	bifemsh_r/activation	glut_max_r/activation	iliopsoas_r/activation	rect_fem_r/activation	  vasti_r/activation	gastroc_r/activation	 soleus_r/activation	tib_ant_r/activation	 ercspn_l/activation	 intobl_l/activation	 extobl_l/activation	    abd_l/activation	    add_l/activation	hamstrings_l/activation	bifemsh_l/activation	glut_max_l/activation	iliopsoas_l/activation	rect_fem_l/activation	  vasti_l/activation	gastroc_l/activation	 soleus_l/activation	tib_ant_l/activation	
          1.93832148	         -7.86899927	          4.70199411	         -9.62411738	          2.15153684	          0.92745988	          0.01664471	         -9.86289960	         -4.88386038	          7.53775029	         -6.91200760	         10.16822764	         29.32341215	         31.01395282	          0.57389150	         -6.03656949	         -1.19558986	          6.47258707	          0.21157136	         -1.54622115	         -2.60519798	          3.02154151	          0.05699023	          0.00999999	          0.00999999	          0.05860600	          0.00999999	          0.01755855	          0.13595590	          0.05125296	          0.40625622	          0.00999999	          0.00999999	          0.35009092	          0.32883822	          0.01764021	          0.10020069	          0.17743351	          0.02804383	          0.01105889	          0.09554996	          0.06543697	          0.22260712	          0.01015707	          0.08838584	          0.00999999	          0.00999999	          0.02145826	          0.00999999	          0.28503500	
          1.95124363	         -7.97421337	          4.62809592	         -9.67505973	          2.16878563	          0.92524074	          0.01626933	        -10.17492839	         -4.86999038	          7.14147695	         -8.10644958	          9.52935425	         31.23702285	         31.09925467	          0.67859086	         -5.79333223	         -2.81211020	          6.02682051	          0.21152685	         -1.25683804	         -2.93472065	          3.17871041	          0.09006545	          0.00999999	          0.00999999	          0.04822074	          0.03567605	          0.01536567	          0.11186388	          0.04217069	          0.41524174	          0.00999999	          0.00999999	          0.32252488	          0.31014428	          0.01451428	          0.08244466	          0.14630918	          0.02307433	          0.00999999	          0.12954464	          0.06220280	          0.18316011	          0.05639411	          0.07272346	          0.00999999	          0.00999999	          0.02699231	          0.01780905	          0.29488729	
          1.96416577	         -8.05835760	          4.54416630	         -9.66603406	          2.18645145	          0.92326636	          0.01580570	        -10.38011807	         -4.83200155	          6.71522391	         -9.57435977	          8.73467942	         33.19803929	         30.99362568	          0.77567007	         -5.54393769	         -4.34294817	          5.54419378	          0.19739317	         -0.94916506	         -3.26725383	          3.31240136	          0.09764762	          0.00999999	          0.00999999	          0.03967580	          0.02935409	          0.01784302	          0.09204108	          0.03469785	          0.40906544	          0.01000000	          0.01795248	          0.28412956	          0.28630890	          0.01194229	          0.07514088	          0.12038251	          0.01898545	          0.05730775	          0.10658873	          0.06557275	          0.15070328	          0.09389758	          0.05983652	          0.00999999	          0.00999999	          0.02220915	          0.01465320	          0.34955478	
          1.97708791	         -8.12389464	          4.44776010	         -9.59779973	          2.20426653	          0.92177835	          0.01523410	        -10.38267915	         -4.75950048	          6.26673837	        -11.43630730	          7.73129283	         35.18970190	         30.72593767	          0.88912462	         -5.33678678	         -5.59542587	          4.90025782	          0.17322550	         -0.65068568	         -3.59705468	          3.41612547	          0.12920152	          0.00999999	          0.00999999	          0.03264506	          0.04090429	          0.02121480	          0.07573097	          0.02854923	          0.40006356	          0.01215368	          0.01477122	          0.23378048	          0.24648567	          0.00999999	          0.08369055	          0.09905017	          0.01562114	          0.11167816	          0.12801642	          0.06221530	          0.12399796	          0.13618432	          0.04923321	          0.00999999	          0.00999999	          0.01827358	          0.01205659	          0.38406866	
          1.99001005	         -8.17025760	          4.34402064	         -9.47421043	          2.22199380	          0.92094674	          0.01457455	        -10.09289720	         -4.64977134	          5.79291858	        -13.81833661	          6.51614436	         37.10220701	         30.37710340	          1.02135204	         -5.16294311	         -6.75989642	          4.40984034	          0.14282091	         -0.38128252	         -3.93200005	          3.48565885	          0.15919052	          0.00999999	          0.00999999	          0.02686021	          0.06193136	          0.02197692	          0.06231109	          0.02349017	          0.37488355	          0.00999999	          0.01215369	          0.19235349	          0.20280726	          0.00999999	          0.08073167	          0.08149802	          0.01285300	          0.14851578	          0.14412028	          0.05830907	          0.10202495	          0.16312844	          0.04050886	          0.00999999	          0.01652529	          0.01503542	          0.00999999	          0.40616749	
          2.00293220	         -8.19718534	          4.23433318	         -9.29737331	          2.23944084	          0.92084829	          0.01385286	         -9.44944447	         -4.50176141	          5.28352018	        -16.79918663	          5.11015712	         38.71563268	         29.98660689	          1.16551709	         -5.01082182	         -7.89445938	          4.12981360	          0.11913161	         -0.15617682	         -4.27527799	          3.51768090	          0.17060915	          0.00999999	          0.00999999	          0.02210045	          0.08916503	          0.02651798	          0.05126928	          0.01932761	          0.32882594	          0.00999999	          0.01000000	          0.15826756	          0.16686887	          0.00999999	          0.07379718	          0.06705619	          0.01057539	          0.16287614	          0.11858150	          0.06017198	          0.08394565	          0.16647280	          0.03333050	          0.00999999	          0.08892512	          0.01237107	          0.00999999	          0.41294304	
          2.01585434	         -8.20665607	          4.10994240	         -9.07083257	          2.25646750	          0.92154016	          0.01311073	         -8.43200039	         -4.31254216	          4.72457044	        -20.38290732	          3.59005070	         39.59599553	         29.51687202	          1.31178049	         -4.85292470	         -8.89936953	          4.00914866	          0.09681271	          0.01301654	         -4.61952548	          3.51149153	          0.18397772	          0.00999999	          0.00999999	          0.01818415	          0.10674088	          0.02181887	          0.04218417	          0.01590266	          0.27055645	          0.00999999	          0.00999999	          0.13022181	          0.13729893	          0.00999999	          0.06071998	          0.05517352	          0.00999999	          0.16284882	          0.09756831	          0.05523317	          0.06907009	          0.15785517	          0.02742418	          0.00999999	          0.15411615	          0.01017886	          0.00999999	          0.40667965	
          2.02877648	         -8.20030445	          3.95905664	         -8.79589651	          2.27304540	          0.92301577	          0.01237325	         -7.07165505	         -4.08656583	          4.11361632	        -24.48690366	          1.97844556	         39.41863388	         28.91176877	          1.45184260	         -4.66262771	         -9.67197715	          4.04589100	          0.08139750	          0.12517837	         -4.95028410	          3.46703695	          0.19048440	          0.00999999	          0.00999999	          0.01496183	          0.11859825	          0.01795247	          0.06130674	          0.01308464	          0.22261259	          0.00999999	          0.00999999	          0.10714590	          0.11296892	          0.00999999	          0.04996012	          0.04539652	          0.00999999	          0.15527104	          0.08027875	          0.05373861	          0.05683055	          0.14389794	          0.02256449	          0.00999999	          0.18815866	          0.00999999	          0.00999999	          0.39117286	
